<svg width="79" height="108" viewBox="0 0 79 108" fill="none" xmlns="http://www.w3.org/2000/svg">
<path d="M-23.3294 2L-27 5.67059M-23.3294 27.0824L-27 30.7529M-23.3294 52.1647L-27 55.8353M-23.3294 77.2471L-27 80.9176M-23.3294 102.329L-27 106M1.75294 2L-1.91765 5.67059M1.75294 27.0824L-1.91765 30.7529M1.75294 52.1647L-1.91765 55.8353M1.75294 77.2471L-1.91765 80.9176M1.75294 102.329L-1.91765 106M26.8353 2L23.1647 5.67059M26.8353 27.0824L23.1647 30.7529M26.8353 52.1647L23.1647 55.8353M26.8353 77.2471L23.1647 80.9176M26.8353 102.329L23.1647 106M51.9176 2L48.2471 5.67059M51.9176 27.0824L48.2471 30.7529M51.9176 52.1647L48.2471 55.8353M51.9176 77.2471L48.2471 80.9176M51.9176 102.329L48.2471 106M77 2L73.3294 5.67059M77 27.0824L73.3294 30.7529M77 52.1647L73.3294 55.8353M77 77.2471L73.3294 80.9176M77 102.329L73.3294 106" stroke="#003559" stroke-width="5"/>
</svg>
